<?xml version="1.0" encoding="UTF-8"?>
<svg width="24" height="23" fill="none" viewBox="0 0 24 23" xmlns="http://www.w3.org/2000/svg">
 <g clip-path="url(#clip0_6_75)">
  <path d="M2 1V0H24V23H0V2H1V1H2Z" fill="#F7F7F7"/>
  <path d="M9 9V8H24V23H8V9H9Z" fill="#A53A42"/>
  <path d="M3 2V1H24L24 2H4V3H3L3 4H2L2 23H1V3H2V2H3Z" fill="#A53A42"/>
  <path d="M3 5H5V6H4V7H5V10H4V11H5V13H4V12H3V9H4V8H3V5Z" fill="#A53A42"/>
  <path d="m5 3v2h1v-1h1v1h3v-1h1v1h2v-1h-1v-1h-3v1h-1v-1h-3z" fill="#A53A42"/>
  <path d="m14 3h2v1h1v1h-2v-1h-1v-1z" fill="#A53A42"/>
  <path d="m23 3h-2v1h-1v1h2v-1h1v-1z" fill="#A53A42"/>
  <path d="m5 17v-2h-1v-1h-1v2h1v1h1z" fill="#A53A42"/>
  <path d="m5 20v2h-1v1h-1v-2h1v-1h1z" fill="#A53A42"/>
  <path d="m3 17h1v1h1v1h-1v1h-1v-3z" fill="#A53A42"/>
  <rect x="18" y="3" width="1" height="2" fill="#A53A42"/>
  <path d="M7 7V6H24V7H8V8H7V23H6V7H7Z" fill="#A53A42"/>
  <path d="m10 13h2v1h-1v2h-1v-3z" fill="#F7F7F7"/>
  <path d="m12 10v2h1v-1h2v-1h-3z" fill="#F7F7F7"/>
  <rect x="12" y="17" width="1" height="2" fill="#F7F7F7"/>
  <rect x="13" y="14" width="1" height="2" fill="#F7F7F7"/>
  <rect x="16" y="14" width="1" height="2" fill="#F7F7F7"/>
  <rect x="14" y="16" width="2" height="1" fill="#F7F7F7"/>
  <rect x="14" y="13" width="2" height="1" fill="#F7F7F7"/>
  <rect x="16" y="19" width="2" height="1" fill="#F7F7F7"/>
  <rect x="19" y="17" width="1" height="2" fill="#F7F7F7"/>
  <rect x="18" y="16" width="1" height="1" fill="#F7F7F7"/>
  <path d="m18 20h2v-1h1v2h-3v-1z" fill="#F7F7F7"/>
  <rect x="11" y="19" width="1" height="2" fill="#F7F7F7"/>
  <rect x="12" y="21" width="1" height="1" fill="#F7F7F7"/>
  <rect x="13" y="22" width="1" height="1" fill="#F7F7F7"/>
  <rect x="17" y="12" width="1" height="1" fill="#F7F7F7"/>
  <rect x="18" y="11" width="3" height="1" fill="#F7F7F7"/>
  <rect x="21" y="12" width="2" height="1" fill="#F7F7F7"/>
  <rect x="23" y="13" width="1" height="1" fill="#F7F7F7"/>
 </g>
 <defs>
  <clipPath id="clip0_6_75">
   <rect width="24" height="23" fill="#fff"/>
  </clipPath>
 </defs>
</svg>
